<svg xmlns="http://www.w3.org/2000/svg" viewBox="0 0 100 100">
    <g>
        <circle fill="red" r="2" cx="45.5" cy="45.5"/>
        <circle fill="grey" r="2" cx="48.5" cy="45.5"/>
        <circle fill="red" r="2" cx="51.5" cy="45.5"/>
        <circle fill="grey" r="2" cx="54.5" cy="45.5"/>
        
        <circle fill="grey" r="2" cx="45.5" cy="48.5"/>
        <circle fill="red" r="2" cx="48.5" cy="48.5"/>
        <circle fill="grey" r="2" cx="51.5" cy="48.5"/>
        <circle fill="red" r="2" cx="54.5" cy="48.5"/>
        
        <circle fill="red" r="2" cx="45.5" cy="51.5"/>
        <circle fill="grey" r="2" cx="48.5" cy="51.5"/>
        <circle fill="red" r="2" cx="51.5" cy="51.5"/>
        <circle fill="grey" r="2" cx="54.5" cy="51.5"/>
        
        <circle fill="grey" r="2" cx="45.5" cy="54.5"/>
        <circle fill="red" r="2" cx="48.5" cy="54.5"/>
        <circle fill="grey" r="2" cx="51.5" cy="54.5"/>
        <circle fill="red" r="2" cx="54.5" cy="54.5"/>

        <circle 
            style="stroke:violet; stroke-width:0.5; fill:transparent;"
            r="20" cx="50" cy="50" />
        <circle fill="blue" r="1" cx="36" cy="36"/>
        <circle fill="blue" r="1" cx="64" cy="64"/>

        <ellipse cx="50" cy="50" 
            style="fill:transparent; stroke:purple; stroke-width:0.5"
            rx="10" ry="40"/>

        <g transform="translate(50,50)
                      rotate(60 0 0)
                      translate(-50,-50)">
        <ellipse cx="50" cy="50" 
            style="fill:transparent; stroke:purple; stroke-width:0.5"
            rx="10" ry="40"/>
        </g>

        <g transform="translate(50,50)
                      rotate(120 0 0)
                      translate(-50,-50)">
        <ellipse cx="50" cy="50" 
            style="fill:transparent; stroke:purple; stroke-width:0.5"
            rx="10" ry="40"/>
        </g>
    </g>
</svg>